<svg width="1058" height="785" viewBox="0 0 1058 785" fill="none" xmlns="http://www.w3.org/2000/svg">
<g id="undraw_Ride_a_bicycle_2yok 1">
<path id="Vector" d="M207.753 122.877C202.807 128.977 200.903 137.553 198.773 145.615C181.627 210.591 139.373 262.855 91.2536 300.186C70.8759 315.999 46.0671 337.205 50.5253 365.557C52.9259 380.783 63.4576 391.991 71.282 404.392C87.6979 430.359 93.0224 465.653 85.198 496.738C76.2997 532.106 51.4278 565.108 59.1258 600.871C63.8728 622.884 79.9908 638.55 95.4861 652.015C119.66 673.008 144.604 692.673 170.319 711.011C187.556 723.302 205.894 735.263 225.983 736.822C243.671 738.198 260.998 731.364 277.793 724.623C292.467 718.725 307.511 712.589 319.361 700.775C327.095 693.061 333.259 683.109 341.85 676.799C362.029 661.976 387.948 671.369 411.087 677.716C465.687 692.612 524.121 687.172 576.076 662.362C655.773 624.297 716.518 544.361 794.473 501.471C827.991 483.026 864.45 471.579 895.486 447.823C912.971 434.297 927.997 417.771 939.887 398.99C963.352 362.2 976.04 315.293 972.376 269.376C968.712 223.46 948.181 179.213 915.936 153.292C881.417 125.546 837.819 120.364 798.543 103.707C757.986 86.5001 721.906 56.9288 681.737 38.465C649.234 23.5662 613.861 16.2525 578.213 17.0603C542.566 17.8682 507.549 26.7772 475.731 43.1337C432.016 65.6057 387.705 118.034 339.017 122.015C304.326 124.767 234.845 89.4719 207.753 122.877Z" fill="url(#paint0_linear)"/>
<g id="man-on-bike">
<path id="Vector_2" d="M436 554.303L393.293 512.159L379.947 525.683L422.654 567.827L436 554.303Z" fill="#535461"/>
<path id="Vector_3" opacity="0.1" d="M438.13 507.86C436.36 509.21 435.48 509.99 435.48 509.99C435.48 509.99 403.48 520.99 403.48 491.99C403.48 491.99 405.03 491.17 407.48 489.8C409.955 493.831 413.423 497.16 417.551 499.469C421.679 501.778 426.33 502.99 431.06 502.99H434.45L438.13 507.86Z" fill="black"/>
<path id="Vector_4" d="M442 425.78H421.19V606.66H442V425.78Z" fill="#9493A0"/>
<path id="Vector_5" opacity="0.1" d="M442 425.77V439.7C435.08 440.6 428 441.17 421.19 441.39V425.77H442Z" fill="black"/>
<path id="Vector_6" opacity="0.1" d="M416.79 615.86C416.789 621.994 416.314 628.119 415.37 634.18C405.77 633.49 395.85 632.49 386.13 631.49C388.289 619.599 388.021 607.394 385.34 595.61C394.81 593.61 404.48 591.7 413.92 589.97C415.833 598.467 416.795 607.15 416.79 615.86Z" fill="black"/>
<path id="Vector_7" opacity="0.1" d="M442 585.38V606.65H421.19V588.65C428.39 587.4 435.39 586.29 442 585.38Z" fill="black"/>
<path id="Vector_8" opacity="0.1" d="M390.21 541.37L368.85 560.92C365.067 556.064 360.791 551.614 356.09 547.64L376.03 526.81C381.164 531.249 385.908 536.12 390.21 541.37Z" fill="black"/>
<path id="Vector_9" d="M301.94 606.66L427.59 475.4L431.6 505.81L308.34 618.66L301.94 606.66Z" fill="#9493A0"/>
<path id="Vector_10" d="M403.48 491.99C403.48 491.99 428.27 478.91 437.85 470.49C443.617 465.444 449.818 460.917 456.38 456.96L487.48 438.03L552.48 433.03L555.48 444.03C555.48 444.03 560.48 460.03 510.48 474.03C460.48 488.03 435.48 510.03 435.48 510.03C435.48 510.03 403.48 520.99 403.48 491.99Z" fill="#DB8B8B"/>
<path id="Vector_11" opacity="0.05" d="M554.54 449.55C551.76 455.44 542.17 465.12 510.48 473.99C469.87 485.36 445.75 501.99 438.13 507.86C436.36 509.21 435.48 509.99 435.48 509.99C435.48 509.99 403.48 520.99 403.48 491.99C403.48 491.99 405.03 491.17 407.48 489.8C414.91 485.73 430.64 476.8 437.82 470.45C443.586 465.403 449.787 460.875 456.35 456.92L487.45 437.99L499.03 437.1L552.45 432.99L555.45 443.99C555.45 443.99 556.15 446.14 554.54 449.55Z" fill="black"/>
<path id="Vector_12" d="M403.98 485.49L377.48 502.99L455.08 567.99C455.08 567.99 466.48 560.99 460.48 552.99C460.48 552.99 440.48 535.99 439.48 511.99L433.48 503.99H430.09C424.358 503.991 418.767 502.211 414.089 498.897C409.412 495.583 405.88 490.898 403.98 485.49Z" fill="#ABB1D1"/>
<path id="Vector_13" opacity="0.1" d="M554.54 449.55C538.54 441.82 499.48 440.99 499.48 440.99L499.06 437.1L552.48 432.99L555.48 443.99C555.48 443.99 556.15 446.14 554.54 449.55Z" fill="black"/>
<path id="Vector_14" d="M499.48 438.99C499.48 438.99 546.48 439.99 558.48 449.99L552.48 328.99H487.48L499.48 438.99Z" fill="#ABB1D1"/>
<path id="Vector_15" opacity="0.05" d="M499.48 438.49C499.48 438.49 546.48 439.49 558.48 449.49L552.48 328.49H487.48L499.48 438.49Z" fill="black"/>
<path id="Vector_16" d="M537.24 364.95C537.24 364.95 654.89 360.95 657.29 376.16C659.69 391.37 539.64 384.96 539.64 384.96C539.64 384.96 530.04 375.35 537.24 364.95Z" fill="#535461"/>
<path id="Vector_17" opacity="0.05" d="M537.24 364.95C537.24 364.95 654.89 360.95 657.29 376.16C659.69 391.37 539.64 384.96 539.64 384.96C539.64 384.96 530.04 375.35 537.24 364.95Z" fill="black"/>
<path id="Vector_18" d="M440.44 410.78C437.52 410.554 434.616 410.164 431.74 409.61C420.46 407.45 392.02 402.92 384.37 410.61C374.77 420.21 377.97 437.02 403.58 439.42C429.19 441.82 473.21 435.42 482.02 425.81C482.02 425.77 466.09 412.75 440.44 410.78Z" fill="#535461"/>
<path id="Vector_19" d="M436.4 475.4L654.9 407.37L662.1 424.18L438 501.01L436.4 475.4Z" fill="#9493A0"/>
<path id="Vector_20" d="M501.23 582.65L658.9 427.38L667.7 440.18L517.23 597.05L501.23 582.65Z" fill="#9493A0"/>
<path id="Vector_21" opacity="0.1" d="M702.58 529.85C697.584 531.142 692.712 532.872 688.02 535.02L678.46 508.31C683.477 506.123 688.644 504.295 693.92 502.84L702.58 529.85Z" fill="black"/>
<path id="Vector_22" d="M729.33 608.26L718.13 614.66L639.99 396.33L636.49 386.56L654.9 376.15L659.51 390.53L729.33 608.26Z" fill="#9493A0"/>
<path id="Vector_23" opacity="0.1" d="M659.51 390.53L639.99 396.33L636.49 386.56L654.9 376.15L659.51 390.53Z" fill="black"/>
<path id="Vector_24" d="M540.44 407.37L650.09 369.75C650.09 369.75 669.3 372.15 662.09 388.16L551.65 420.97C551.65 420.97 534.85 422.57 540.44 407.37Z" fill="#535461"/>
<path id="Vector_25" d="M307.54 615.49C307.54 615.49 475.62 571.49 489.22 588.28C502.82 605.07 517.23 627.49 474.85 635.49C432.47 643.49 304.37 621.88 304.37 621.88L307.54 615.49Z" fill="#9493A0"/>
<path id="Vector_26" opacity="0.1" d="M497.22 628.27C511.364 628.27 522.83 616.804 522.83 602.66C522.83 588.516 511.364 577.05 497.22 577.05C483.076 577.05 471.61 588.516 471.61 602.66C471.61 616.804 483.076 628.27 497.22 628.27Z" fill="black"/>
<path id="Vector_27" d="M498.83 628.27C512.974 628.27 524.44 616.804 524.44 602.66C524.44 588.516 512.974 577.05 498.83 577.05C484.686 577.05 473.22 588.516 473.22 602.66C473.22 616.804 484.686 628.27 498.83 628.27Z" fill="#535461"/>
<path id="Vector_28" d="M491.992 600.736L491.984 600.742C488.977 602.991 488.362 607.253 490.611 610.26L510.937 637.441C513.186 640.448 517.448 641.063 520.455 638.814L520.463 638.808C523.471 636.559 524.085 632.297 521.836 629.29L501.51 602.109C499.261 599.102 495 598.487 491.992 600.736Z" fill="#6C63FF"/>
<path id="Vector_29" d="M614.48 246.99L612.1 277.1C611.826 280.914 611.876 284.744 612.25 288.55C612.56 291.92 612.25 297.82 608.95 306.82C604.713 318.317 602.523 330.467 602.48 342.72V376.99L579.48 372.99C579.48 372.99 580.48 324.99 576.48 316.99C572.48 308.99 579.48 237.99 579.48 237.99L614.48 246.99Z" fill="#DB8B8B"/>
<path id="Vector_30" opacity="0.05" d="M613.3 261.91L612.1 277.1C611.83 280.911 611.883 284.738 612.26 288.54C612.57 291.91 612.26 297.81 608.96 306.82C604.723 318.317 602.533 330.467 602.49 342.72V376.99L579.49 372.99C579.49 372.99 580.49 324.99 576.49 316.99C573.66 311.32 576.34 274.05 578.15 252.78C578.9 244.03 579.49 237.99 579.49 237.99L614.49 246.99L613.3 261.91Z" fill="black"/>
<path id="Vector_31" d="M500.5 476.99L491.85 526.19C490.759 532.759 489.086 539.218 486.85 545.49C481.78 559.35 485.02 578.78 487.48 589.38C488.57 594.06 489.48 597.02 489.48 597.02L463.48 611.02L455.48 605.02V601.02L454.48 512.02C448.48 498.02 450.48 477.02 454.48 469.02C455.617 466.392 456.417 463.63 456.86 460.8C458.86 450.08 459.48 435.02 459.48 435.02C459.48 435.02 475.48 408.02 494.48 426.02C501.48 432.65 504.14 441.32 504.7 449.62C505.68 463.83 500.5 476.99 500.5 476.99Z" fill="#DB8B8B"/>
<path id="Vector_32" opacity="0.1" d="M504.7 449.59C490.83 457.83 466.7 460.16 456.86 460.77C458.86 450.05 459.48 434.99 459.48 434.99C459.48 434.99 475.48 407.99 494.48 425.99C501.48 432.62 504.14 441.29 504.7 449.59Z" fill="black"/>
<path id="Vector_33" d="M538.48 424.99C527.846 430.653 517.797 437.352 508.48 444.99C492.48 457.99 452.48 458.99 452.48 458.99V443.99C453.48 425.99 436.48 405.99 413.48 349.99C398.79 314.23 402.86 293.99 407.72 283.99C410.48 278.34 413.48 275.99 413.48 275.99L538.48 299.99L542.95 313.39L552.48 341.99C552.48 341.99 517.48 343.99 511.48 346.99C505.48 349.99 509.48 376.99 509.48 376.99C503.48 404.99 538.48 424.99 538.48 424.99Z" fill="#ABB1D1"/>
<path id="Vector_34" opacity="0.1" d="M614.48 246.99L613.3 261.91C595.9 266.91 583.48 250.99 583.48 250.99C581.665 251.477 579.882 252.074 578.14 252.78C578.89 244.03 579.48 237.99 579.48 237.99L614.48 246.99Z" fill="black"/>
<path id="Vector_35" opacity="0.1" d="M542.95 313.39C542.48 318.06 542.48 320.99 542.48 320.99C542.48 320.99 519.48 339.99 480.48 310.99C441.48 281.99 406.48 289.99 406.48 289.99C406.48 289.99 406.89 287.67 407.72 283.99C410.48 278.34 413.48 275.99 413.48 275.99L538.48 299.99L542.95 313.39Z" fill="black"/>
<path id="Vector_36" d="M627.96 207.94C625.35 228.29 624.48 253.94 624.48 253.94C601.48 271.94 583.48 248.94 583.48 248.94C561.76 254.77 551.55 273.78 546.74 290.37C544.164 299.344 542.732 308.607 542.48 317.94C542.48 317.94 536.4 322.94 525.2 323.94C514.61 324.83 499.43 322.07 480.48 307.94C441.48 278.94 406.48 286.94 406.48 286.94C406.48 286.94 413.48 246.94 429.48 234.94C445.48 222.94 457.48 207.94 477.48 161.94C497.48 115.94 538.48 126.94 538.48 126.94C538.48 126.94 540.48 117.94 577.48 126.94C586.492 129.302 594.834 133.721 601.85 139.85C621.64 156.49 631.24 182.3 627.96 207.94Z" fill="white"/>
<path id="Vector_37" d="M590.85 149.49C590.8 150.82 590.69 152.3 590.51 153.95C588.51 171.95 586.51 169.95 564.51 173.95C550.83 176.44 543.72 165.01 540.3 156.01C539.062 152.75 538.128 149.382 537.51 145.95L585.51 137.95C585.51 137.95 591.26 136.34 590.85 149.49Z" fill="#DB8B8B"/>
<path id="Vector_38" opacity="0.05" d="M546.74 290.42C544.164 299.394 542.732 308.657 542.48 317.99C542.48 317.99 536.4 322.99 525.2 323.99C524.884 323.353 524.643 322.682 524.48 321.99C522.48 312.99 507.48 296.99 507.48 296.99C497.48 287.99 495.48 271.99 495.48 271.99L478.98 223.49L473.48 218.99C473.48 218.99 496.48 200.99 516.48 215.99C536.48 230.99 530.48 262.99 530.48 262.99L534.48 273.99C538.63 277.49 542.85 283.66 546.74 290.42Z" fill="black"/>
<path id="Vector_39" d="M476.48 217.99L498.48 270.99C498.48 270.99 500.48 286.99 510.48 295.99C510.48 295.99 525.48 311.99 527.48 320.99C529.48 329.99 557.48 353.99 557.48 353.99C557.48 353.99 583.48 377.99 585.48 386.99C585.48 386.99 609.48 393.99 606.48 407.99C606.48 407.99 624.48 389.99 606.48 372.99C588.48 355.99 564.48 320.99 564.48 320.99C564.48 320.99 550.48 283.99 537.48 272.99L533.48 261.99C533.48 261.99 539.48 229.99 519.48 214.99C499.48 199.99 476.48 217.99 476.48 217.99Z" fill="#DB8B8B"/>
<path id="Vector_40" opacity="0.1" d="M489.48 596.99L463.48 610.99L455.48 604.99V600.99C464.464 600.352 473.193 597.718 481.03 593.28C483.43 591.92 485.69 590.58 487.5 589.4C488.55 594.03 489.48 596.99 489.48 596.99Z" fill="black"/>
<path id="Vector_41" opacity="0.1" d="M519.48 175.99L533.48 230.99C533.48 230.99 490.48 237.99 481.48 230.99C472.48 223.99 455.48 221.99 455.48 221.99C455.48 221.99 473.48 169.99 483.48 163.99C493.48 157.99 519.48 175.99 519.48 175.99Z" fill="black"/>
<path id="Vector_42" d="M519.48 173.99L533.48 228.99C533.48 228.99 490.48 235.99 481.48 228.99C472.48 221.99 455.48 219.99 455.48 219.99C455.48 219.99 473.48 167.99 483.48 161.99C493.48 155.99 519.48 173.99 519.48 173.99Z" fill="white"/>
<path id="Vector_43" opacity="0.1" d="M590.85 148.49C588.049 152.356 584.487 155.609 580.383 158.047C576.278 160.485 571.718 162.058 566.983 162.669C562.249 163.28 557.439 162.915 552.85 161.598C548.261 160.281 543.99 158.039 540.3 155.01C539.062 151.75 538.128 148.382 537.51 144.95L585.51 136.95C585.51 136.95 591.26 135.34 590.85 148.49Z" fill="black"/>
<path id="Vector_44" d="M597.48 126.99C597.48 136.273 593.792 145.175 587.229 151.739C580.665 158.303 571.763 161.99 562.48 161.99C553.197 161.99 544.295 158.303 537.731 151.739C531.167 145.175 527.48 136.273 527.48 126.99C527.48 126.41 527.48 125.83 527.48 125.25C527.711 115.967 531.62 107.157 538.346 100.756C545.073 94.3555 554.067 90.8893 563.35 91.12C572.633 91.3508 581.443 95.2595 587.844 101.986C594.244 108.713 597.711 117.707 597.48 126.99Z" fill="#DB8B8B"/>
<path id="Vector_45" opacity="0.1" d="M597.48 126.99C597.483 130.216 597.039 133.426 596.16 136.53C593.455 137.12 590.633 136.861 588.08 135.79C584.34 134.32 581.13 131.79 577.54 129.97C567.43 124.85 555.4 125.86 544.2 127.55C538.64 128.39 532.33 129.17 527.96 125.63C527.81 125.511 527.666 125.385 527.53 125.25C527.761 115.967 531.67 107.157 538.396 100.756C545.123 94.3555 554.117 90.8893 563.4 91.12C572.683 91.3508 581.493 95.2595 587.894 101.986C594.295 108.713 597.761 117.707 597.53 126.99H597.48Z" fill="black"/>
<path id="Vector_46" opacity="0.05" d="M433.98 234.49C433.98 234.49 459.98 241.49 467.98 259.49C475.98 277.49 497.62 280.78 497.62 280.78" fill="black"/>
<path id="Vector_47" d="M531.98 630.49H471.98V649.49H531.98V630.49Z" fill="#535461"/>
<path id="Vector_48" d="M480.99 595.23C486.36 592.23 491.07 589.23 491.48 587.99C491.48 587.99 505.03 602.29 517.1 606.73C521.159 608.229 525.044 610.16 528.69 612.49C533.47 615.49 540.29 619.02 546.48 619.02C546.48 619.02 560.48 631.02 533.48 633.02C506.48 635.02 443.48 628.02 443.48 628.02L447.48 603.02C459.167 603.705 470.804 601 480.99 595.23Z" fill="#ABB1D1"/>
</g>
<g id="Left wheel">
<path id="Vector_49" d="M308.725 720.778L302.455 622.838L302.325 622.628L296.005 624.828L266.925 709.678L220.675 676.888L294.345 623.478L294.415 623.268L294.835 623.118L299.585 619.668L222.345 576.358L203.425 597.158L206.425 616.658L295.245 618.278V620.278L204.765 618.658L201.345 596.518L227.245 568.058L265.995 522.858L266.685 524.728L274.885 515.728L305.345 521.188V519.978L307.345 520.038V521.548L352.705 529.668L310.415 614.278L304.245 618.748V619.248V619.808L402.045 585.728L390.435 676.938L307.435 624.068L304.515 622.428L353.455 701.308L308.725 720.778ZM304.725 626.438L310.575 717.818L350.625 700.438L304.725 626.438ZM224.145 676.868L265.935 706.498L293.275 626.758L224.145 676.868ZM306.465 621.208L308.555 622.378L388.905 673.578L399.705 588.708L306.465 621.208ZM299.365 614.008L301.875 618.058L302.315 617.738L305.315 523.208L275.575 517.888L267.415 526.888L299.365 614.008ZM223.945 574.948L298.785 616.948L297.485 614.818L265.905 528.548L228.715 569.418L223.945 574.948ZM307.345 523.558L304.345 616.278L308.865 612.998L349.775 531.178L307.345 523.558Z" fill="#535461"/>
<path id="Vector_50" d="M418.415 593.738C414.405 575.919 406.285 559.283 394.705 545.158C390.406 539.909 385.666 535.038 380.535 530.598C360.809 513.567 335.986 503.568 309.962 502.17C283.938 500.771 258.187 508.053 236.749 522.873C215.311 537.693 199.401 559.211 191.515 584.05C183.629 608.89 184.214 635.645 193.178 660.116C202.142 684.587 218.978 705.39 241.042 719.258C263.107 733.127 289.152 739.277 315.09 736.743C341.028 734.208 365.39 723.134 384.353 705.257C403.317 687.379 415.807 663.712 419.865 637.968C420.809 631.907 421.284 625.783 421.285 619.648C421.292 610.932 420.329 602.242 418.415 593.738ZM303.225 708.088C284.993 708.069 267.209 702.435 252.292 691.953C237.374 681.47 226.047 666.648 219.851 649.501C213.655 632.354 212.89 613.715 217.66 596.118C222.43 578.521 232.505 562.82 246.513 551.15C260.521 539.48 277.783 532.408 295.953 530.895C314.122 529.381 332.316 533.501 348.062 542.693C363.807 551.884 376.34 565.703 383.956 582.268C391.571 598.834 393.9 617.343 390.625 635.278C386.875 655.722 376.076 674.203 360.107 687.506C344.137 700.809 324.01 708.093 303.225 708.088Z" fill="#535461"/>
<path id="Vector_51" d="M301.81 630.62C308.885 630.62 314.62 624.885 314.62 617.81C314.62 610.735 308.885 605 301.81 605C294.735 605 289 610.735 289 617.81C289 624.885 294.735 630.62 301.81 630.62Z" fill="#535461"/>
</g>
<g id="hat">
<path id="Vector_52" d="M507.624 105.927C509.754 112.607 519.984 112.817 525.234 117.737C527.964 120.297 529.234 124.077 532.234 126.357C536.404 129.537 542.424 128.837 547.734 128.077C558.424 126.557 569.904 125.647 579.544 130.257C582.964 131.887 586.034 134.167 589.604 135.497C593.174 136.827 597.604 136.987 600.504 134.627C602.824 132.737 603.674 129.627 605.774 127.547C607.404 125.907 609.674 124.987 611.534 123.547C615.614 120.467 617.374 115.447 618.534 110.647C620.934 100.767 621.624 90.1167 617.534 80.7467C613.444 71.3767 603.604 63.7467 592.864 64.2367C589.574 64.3867 586.364 65.2367 583.084 65.5967C574.534 66.4667 566.084 63.5967 557.504 63.1067C555.015 62.8039 552.49 63.1483 550.174 64.1067C548.427 65.0775 546.92 66.4273 545.764 68.0567C541.836 73.2021 539.146 79.1836 537.904 85.5367C536.904 90.3267 536.854 94.6667 530.984 95.4067C524.314 96.2867 503.114 91.7967 507.624 105.927Z" fill="#472727"/>
</g>
<g id="right-wheel">
<path id="Vector_53" d="M733.847 701.78L727.587 603.88L727.457 603.67L721.137 605.87L692.047 690.68L645.797 657.88L719.487 604.47L719.557 604.26L719.977 604.11L724.727 600.66L647.487 557.35L628.557 578.15L631.557 597.65L720.357 599.23V601.23L629.877 599.61L626.477 577.5L652.367 549.05L691.087 503.88L691.777 505.75L699.977 496.75L730.517 502.22V501.01L732.517 501.07V502.58L777.877 510.7L735.547 595.35L729.377 599.82V600.32V600.88L827.187 566.8L815.577 658.01L732.577 605.14L729.657 603.5L778.597 682.39L733.847 701.78ZM729.847 607.44L735.697 698.82L775.747 681.44L729.847 607.44ZM649.277 657.88L691.067 687.51L718.407 607.77L649.277 657.88ZM731.597 602.22L733.687 603.39L814.037 654.59L824.837 569.72L731.597 602.22ZM724.497 595.02L727.007 599.07L727.447 598.75L730.447 504.22L700.707 498.88L692.547 507.88L724.497 595.02ZM649.107 555.97L723.947 597.97L722.647 595.84L691.067 509.57L653.867 550.45L649.107 555.97ZM732.477 504.58L729.477 597.27L733.997 593.99L774.907 512.17L732.477 504.58Z" fill="#535461"/>
<path id="Vector_54" d="M728.757 483C718.144 482.988 707.578 484.415 697.347 487.24C692.071 488.695 686.904 490.523 681.887 492.71C655.157 504.297 633.674 525.387 621.594 551.898C609.514 578.41 607.697 608.459 616.492 636.233C625.287 664.008 644.071 687.533 669.209 702.259C694.348 716.984 724.054 721.863 752.582 715.952C781.109 710.04 806.431 693.759 823.648 670.257C840.865 646.755 848.754 617.702 845.789 588.72C842.823 559.738 829.215 532.885 807.595 513.356C785.975 493.828 757.881 483.012 728.747 483H728.757ZM728.357 689.09C708.076 689.082 688.408 682.137 672.62 669.407C656.831 656.678 645.872 638.931 641.562 619.113C637.252 599.295 639.851 578.599 648.928 560.463C658.004 542.326 673.011 527.84 691.457 519.41C696.149 517.262 701.021 515.532 706.017 514.24C718.229 511.07 730.977 510.537 743.411 512.678C755.845 514.818 767.681 519.581 778.13 526.652C788.58 533.722 797.404 542.937 804.015 553.683C810.627 564.429 814.873 576.46 816.473 588.975C818.073 601.49 816.989 614.202 813.293 626.265C809.598 638.329 803.375 649.467 795.04 658.939C786.704 668.41 776.447 675.998 764.951 681.196C753.455 686.395 740.984 689.086 728.367 689.09H728.357Z" fill="#535461"/>
<path id="Vector_55" d="M723.81 616.62C730.885 616.62 736.62 610.885 736.62 603.81C736.62 596.735 730.885 591 723.81 591C716.735 591 711 596.735 711 603.81C711 610.885 716.735 616.62 723.81 616.62Z" fill="#535461"/>
</g>
</g>
<defs>
<linearGradient id="paint0_linear" x1="511.5" y1="17" x2="511.5" y2="737" gradientUnits="userSpaceOnUse">
<stop stop-color="#3883C0"/>
<stop offset="0.0001" stop-color="#DAAAEB" stop-opacity="0"/>
<stop offset="0.0002" stop-color="#EEC2FF"/>
<stop offset="0.953125" stop-color="#4DC7FC"/>
</linearGradient>
</defs>
</svg>
